<?xml version="1.0" encoding="utf-8"?>
<!-- Generator: Adobe Illustrator 22.1.0, SVG Export Plug-In . SVG Version: 6.00 Build 0)  -->
<svg version="1.1" id="Layer_1" xmlns="http://www.w3.org/2000/svg" xmlns:xlink="http://www.w3.org/1999/xlink" x="0px" y="0px"
	 viewBox="0 0 93.9 710" style="enable-background:new 0 0 93.9 710;" xml:space="preserve">
<style type="text/css">
	.st0{fill:#18343D;stroke:#18343D;stroke-width:2;stroke-linecap:round;stroke-linejoin:round;}
	.st1{fill:#DBDFC6;stroke:#18343D;stroke-width:2;stroke-linejoin:round;}
	.st2{opacity:0.1;fill:#252525;enable-background:new    ;}
	.st3{fill:#F8B05B;}
	.st4{fill:none;stroke:#18343D;stroke-width:2;}
	.st5{fill:#DBDFC6;stroke:#18343D;stroke-width:2;}
	.st6{fill:#18343D;}
	.st7{opacity:0.15;fill:#252525;enable-background:new    ;}
	.st8{fill:none;stroke:#18343D;stroke-width:2;stroke-linecap:round;}
	.st9{fill:none;stroke:#18343D;}
</style>
<path id="Rounded_Rectangle_2_1_" class="st0" d="M92.9,582v112c0,8.3-6.7,15-15,15h-2c-8.3,0-15-6.7-15-15V582H92.9z"/>
<rect x="63.9" y="523" class="st1" width="26" height="59"/>
<rect id="Rectangle_5_copy" x="75.9" y="523" class="st2" width="14" height="59"/>
<g>
	<path id="path_2_" class="st3" d="M69.9,277.8l2.5-122l2-4.8l-2.4-4.8l0.5-110.7l2.1-4.2L73,26.4V8.5C73,4.4,73.4,1,77.5,1
		S82,4.4,82,8.5L84,523H69l0.4-104.6l4-5.4l-3.4-5.4V288l3.9-5L69.9,277.8z"/>
</g>
<g>
	<path id="path_3_" class="st4" d="M71.9,26L72,8.5C72,4.4,73.3,1,77.4,1s5.5,3.3,5.5,7.5l2,514.5h-15l0.4-98"/>
	<path id="path_4_" class="st4" d="M70.9,146l0.4-110"/>
	<path id="path_6_" class="st4" d="M70.9,278l0.5-122"/>
	<path id="path_5_" class="st4" d="M69.9,400l0.4-112"/>
</g>
<path class="st5" d="M17.9,522h17c5.5,0,10,4.5,10,10l0,0l0,0h-37l0,0l0,0C7.9,526.5,12.4,522,17.9,522z"/>
<path id="Rectangle_8_copy" class="st5" d="M31.9,589h-11c-8.8,0-13-7.2-13-16l0,0l0,0h37l0,0l0,0C44.9,581.8,40.7,589,31.9,589z"/>
<path class="st5" d="M2,571h41.9c3.3,0,6-2.7,6-6v-23c0-3.3-2.7-6-6-6H2c-0.6,0-1.1-0.6-1-1.2c0.5-2.8,3-4.8,5.9-4.8h39
	c5.5,0,10,4.5,10,10v27c0,5.5-4.5,10-10,10h-39c-2.9,0-5.4-2.1-5.9-4.8C0.9,571.6,1.4,571,2,571z"/>
<rect x="6.9" y="537" class="st6" width="38" height="33"/>
<circle class="st6" cx="25.9" cy="583" r="4"/>
<rect x="55.9" y="543" class="st6" width="8" height="20"/>
<path id="Rectangle_6_copy" class="st7" d="M77.4,1c4.1,0,5.5,3.4,5.5,7.5l2,514.5h-8"/>
<path class="st3" d="M76.8,275.9c-2.3-3.6-6.3-5.9-10.9-5.9c-7.2,0-13,5.8-13,13s5.8,13,13,13c4.6,0,8.7-2.4,11-6 M65.9,290
	c-3.9,0-7-3.1-7-7s3.1-7,7-7s7,3.1,7,7S69.8,290,65.9,290z"/>
<path id="Ellipse_2_copy_1_" class="st8" d="M76.9,290c-3.8,6.1-11.9,7.9-17.9,4s-7.9-11.9-4-17.9c3.8-6.1,11.9-7.9,17.9-4
	c1,0.6,1.9,1.4,2.6,2.2c0.5,0.5,0.9,1.1,1.3,1.7"/>
<path id="Ellipse_2_copy_9_1_" class="st4" d="M65.9,276c1.9,0,3.5,0.7,4.8,1.9c1.4,1.3,2.2,3.1,2.2,5.1c0,3.9-3.1,7-7,7s-7-3.1-7-7
	S62,276,65.9,276z"/>
<path class="st3" d="M77.1,144.8c-2-3.1-5.6-5.2-9.6-5.2c-6.3,0-11.4,5.1-11.4,11.4c0,6.3,5.1,11.4,11.4,11.4c4.1,0,7.6-2.1,9.6-5.3
	 M67.5,157.1c-3.4,0-6.1-2.8-6.1-6.1c0-3.4,2.8-6.1,6.1-6.1c3.4,0,6.1,2.8,6.1,6.1C73.6,154.4,70.9,157.1,67.5,157.1z"/>
<path id="Ellipse_2_copy_2_" class="st8" d="M77.1,157.1c-3.4,5.3-10.4,6.9-15.8,3.5c-5.3-3.4-6.9-10.4-3.5-15.8
	c3.4-5.3,10.4-6.9,15.8-3.5c0.9,0.5,1.6,1.2,2.3,1.9c0.4,0.5,0.8,1,1.1,1.5"/>
<circle id="Ellipse_2_copy_9_2_" class="st4" cx="67.5" cy="151" r="6.1"/>
<path class="st3" d="M77.5,25.8c-1.7-2.6-4.7-4.4-8-4.4c-5.3,0-9.6,4.3-9.6,9.6s4.3,9.6,9.6,9.6c3.3,0,6.2-1.7,7.9-4.2 M69.4,36.2
	c-2.9,0-5.2-2.3-5.2-5.2s2.3-5.2,5.2-5.2c2.9,0,5.2,2.3,5.2,5.2S72.3,36.2,69.4,36.2z"/>
<path id="Ellipse_2_copy_3_" class="st8" d="M77.5,36.1c-2.8,4.5-8.8,5.8-13.2,3c-4.5-2.8-5.8-8.8-3-13.2c2.8-4.5,8.8-5.8,13.2-3
	c0.7,0.5,1.4,1,1.9,1.6c0.4,0.4,0.7,0.8,1,1.2"/>
<circle id="Ellipse_2_copy_9_3_" class="st4" cx="69.4" cy="31" r="5.2"/>
<path class="st9" d="M69.4,36l0.1-10"/>
<path class="st9" d="M67.4,157v-2l2-114.4"/>
<path class="st9" d="M66.4,289.5c0-1.9,0-2.9,0-2.9L67,162"/>
<path class="st3" d="M70.8,288"/>
<path class="st3" d="M70.9,277.8"/>
<path class="st3" d="M76.8,405.9c-2.3-3.6-6.3-5.9-10.9-5.9c-7.2,0-13,5.8-13,13s5.8,13,13,13c4.6,0,8.7-2.4,11-6 M65.9,420
	c-3.9,0-7-3.1-7-7s3.1-7,7-7s7,3.1,7,7S69.8,420,65.9,420z"/>
<path id="Ellipse_2_copy" class="st8" d="M76.9,420c-3.8,6.1-11.9,7.9-17.9,4s-7.9-11.9-4-17.9c3.8-6.1,11.9-7.9,17.9-4
	c1,0.6,1.9,1.4,2.6,2.2c0.5,0.5,0.9,1.1,1.3,1.7"/>
<circle id="Ellipse_2_copy_9" class="st4" cx="65.9" cy="413" r="7"/>
<path class="st9" d="M65.9,419.5c0-0.6,0-1.3,0-1.9c0.6-55,1.3-102.3,1.1-121.6"/>
</svg>
